<svg xmlns="http://www.w3.org/2000/svg" viewBox="0 0 1200 630" role="img" aria-label="Patrimoine Antifragile Open Graph">
  <defs>
    <linearGradient id="bg" x1="0%" x2="100%" y1="0%" y2="100%">
      <stop offset="0%" stop-color="#050d19"/>
      <stop offset="55%" stop-color="#081321"/>
      <stop offset="100%" stop-color="#102846"/>
    </linearGradient>
    <linearGradient id="line" x1="0%" x2="100%" y1="0%" y2="100%">
      <stop offset="0%" stop-color="#73d8ff"/>
      <stop offset="100%" stop-color="#2f7ef4"/>
    </linearGradient>
  </defs>
  <rect width="1200" height="630" fill="url(#bg)"/>
  <circle cx="1020" cy="120" r="180" fill="#5fa8ff" opacity="0.08"/>
  <circle cx="180" cy="120" r="140" fill="#73d8ff" opacity="0.06"/>
  <g opacity="0.12" stroke="#9fb5d9">
    <path d="M0 90 H1200"/>
    <path d="M0 180 H1200"/>
    <path d="M0 270 H1200"/>
    <path d="M0 360 H1200"/>
    <path d="M0 450 H1200"/>
    <path d="M0 540 H1200"/>
  </g>
  <rect x="70" y="70" width="1060" height="490" rx="32" fill="none" stroke="#9fb5d9" opacity="0.14"/>
  <text x="110" y="180" fill="#73d8ff" font-family="Arial, sans-serif" font-size="30" font-weight="700" letter-spacing="8">PATRIMOINE ANTIFRAGILE</text>
  <text x="110" y="295" fill="#f5f9ff" font-family="Arial, sans-serif" font-size="76" font-weight="700">Investir pour resister,</text>
  <text x="110" y="380" fill="#f5f9ff" font-family="Arial, sans-serif" font-size="76" font-weight="700">pas pour predire.</text>
  <text x="110" y="470" fill="#9fb5d9" font-family="Arial, sans-serif" font-size="34">Robustesse. Frugalite. Convexite. Temps long.</text>
  <g transform="translate(835 300)">
    <rect x="-70" y="-70" width="140" height="140" rx="30" fill="none" stroke="url(#line)" stroke-width="3"/>
    <path d="M-40 30 L-10 -15 L18 10 L48 -45" fill="none" stroke="url(#line)" stroke-linecap="round" stroke-linejoin="round" stroke-width="8"/>
    <circle cx="48" cy="-45" r="8" fill="#73d8ff"/>
  </g>
</svg>
